# xmcd
#
# Track frame offsets: 
#        151
#        17719
#        33561
#        47406
#        60987
#        75187
#        89710
#        104626
#        123009
#        133416
#        144436
#        154941
#        168886
#        181884
#        199881
#        211903
#
# Disc length: 2988 seconds
#
# Revision: 0
# Processed by: cddbd v1.5.2PL0 Copyright (c) Steve Scherf et al.
# Submitted via: ExactAudioCopy v1.0b6
#
DISCID=d40baa10
DTITLE=Lisa Johnson and Stacey Robbins - Doin' What We're Made 2 Do (200
DTITLE=2)
DYEAR=2002
DGENRE=Children Praise
TTITLE0=Doin' What We're Made To Do
TTITLE1=You Oh God Are Strong
TTITLE2=That's The Way
TTITLE3=Child Of God
TTITLE4=God Gave Us Jesus
TTITLE5=Givin' You All Of Me
TTITLE6=I Want To Worship You
TTITLE7=Holy Is Your Name
TTITLE8=Beautiful
TTITLE9=Love That Will Not Let Me Go
TTITLE10=Lord I Love Your Word
TTITLE11=He Is A God Who Loves His Children
TTITLE12=He Wants To Walk With You
TTITLE13=Mighty Love
TTITLE14=Jesus I Want To Forgive
TTITLE15=He Is A God Who Loves His Children
EXTD=
EXTT0=
EXTT1=
EXTT2=
EXTT3=
EXTT4=
EXTT5=
EXTT6=
EXTT7=
EXTT8=
EXTT9=
EXTT10=
EXTT11=
EXTT12=
EXTT13=
EXTT14=
EXTT15=
PLAYORDER=
